<!-- <?xml version="1.0" encoding="utf-8"?> -->
<!-- Generator: Adobe Illustrator 23.0.1, SVG Export Plug-In . SVG Version: 6.00 Build 0)  -->
<svg version="1.1" id="Layer_2" xmlns="http://www.w3.org/2000/svg" xmlns:xlink="http://www.w3.org/1999/xlink" x="0px" y="0px"
	 viewBox="0 0 130.5 158.5" style="enable-background:new 0 0 130.5 158.5;" xml:space="preserve">
<style type="text/css">
	.st0{fill:#424242;transition:0.8s;}
</style>
<path class="st0" d="M114,94.2h-10.1v-27L63.6,0L52.2,17.7l-7-7.4L8.9,64.7l-0.1,0.2V102L0,118v40.5h41.7v-0.7h0.7v-57h39v57.8h49
	v-38.2L114,94.2z M62.8,4v68.3c0,0,0,0,0,0c-6,0-10.9,1.9-14.6,5.8c-7.7,8-7.3,21.3-7.2,22v57H23.3V65.4L53.2,19l0.1-0.1l0,0L62.8,4
	z M45.4,12.7l6,6.3L21.9,64.8L21.8,65v92H10.3V65.4L45.4,12.7z M1.5,118.4l7.3-13.3V157H1.5V118.4z M42.4,99.3
	c0-2.9,0.5-13.6,6.8-20.2c3.4-3.5,7.9-5.3,13.5-5.3c5.6,0,10,1.8,13.1,5.3c5.9,6.6,5.7,17.4,5.6,20.2H42.4z M83,100
	c0.1-0.9,1.2-14.1-5.9-22c-3.1-3.5-7.4-5.4-12.8-5.7V4.1l38,63.5V157H83V100z M129,157h-25.2V95.7h9.3l15.9,25.1V157z"/>
</svg>
