<!-- <?xml version="1.0" encoding="utf-8"?> -->
<!-- Generator: Adobe Illustrator 23.0.1, SVG Export Plug-In . SVG Version: 6.00 Build 0)  -->
<svg version="1.1" id="Layer_1" xmlns="http://www.w3.org/2000/svg" xmlns:xlink="http://www.w3.org/1999/xlink" x="0px" y="0px"
	 viewBox="0 0 140 107.6" style="enable-background:new 0 0 140 107.6;" xml:space="preserve">
<style type="text/css">
	.st0{fill:#424242;
		transition:0.8s;}
</style>
<path class="st0" d="M100.9,0h-1.5H78.5v0l0,0H45.4h-1.5h-0.1L1.4,15.5h0.1l-0.1,0v92h36.8h1.5h0v-1.5h0V56.6l5.3-6h8.2v19.3v1.5
	h1.5h30.5L92.8,85h1.4V50.5h5.7l4.1,4v53.1h0.1h1.4h32.9v-92L100.9,0z M2.9,106.1V15.5h35.3v90.5H2.9z M10.2,14L43.9,1.5v48
	l-4.2,4.8V14H10.2z M45.4,49V1.5h30.4L53.2,14v1.5V49H45.4z M77,14H56.8L77,2.6V14z M54.7,15.5H77h1.5h6.5v54.3H54.7V15.5z
	 M92.7,81.7l-6.3-11.4V15.9l6.3,4V49v1.5V81.7z M86.4,14h-8V1.5h20.9V49h-5.2V19L86.4,14z M100.9,49.4V1.6L130.4,14H104v38.4
	L100.9,49.4z M136.9,106.1h-31.4V15.5h31.4V106.1z"/>
</svg>
