<?xml version="1.0" encoding="utf-8"?>
<!-- Generator: Adobe Illustrator 23.0.1, SVG Export Plug-In . SVG Version: 6.00 Build 0)  -->
<svg version="1.1" id="gordisky_logo" xmlns="http://www.w3.org/2000/svg" xmlns:xlink="http://www.w3.org/1999/xlink" x="0px"
	 y="0px" viewBox="0 0 195.5 202.2" style="enable-background:new 0 0 195.5 202.2;" xml:space="preserve">
<path d="M0,0v202.1h1.1V1.1h193.4v201.1h1.1V0H0z M116.9,137.8h-4.2l-24.1,23.4v-23.4h-3v42.3h3v-14.8l8.7-8.4l16.9,23.2h4
	l-18.8-25.4L116.9,137.8z M40.8,40.1h11.7v7.7l0,0c-1.7,2.3-4,4.2-6.6,5.6c-2.8,1.4-6,2.1-9.2,2c-2.4,0-4.7-0.4-6.9-1.3
	c-2-0.8-3.9-2.1-5.4-3.7c-1.6-1.7-2.7-3.8-3.5-6c-0.9-2.6-1.3-5.3-1.2-8.1c0-2.7,0.4-5.5,1.2-8.1c0.7-2.2,1.9-4.2,3.5-5.9
	c1.5-1.6,3.3-2.8,5.3-3.6c2.2-0.8,4.5-1.2,6.8-1.2c1.9,0,3.7,0.2,5.6,0.7c1.6,0.4,3.1,1.1,4.4,2c1.2,0.8,2.2,1.8,3.1,2.9
	c0.7,0.9,1.1,2,1.4,3.1l0.1,0.4h3.3l-0.2-0.7c-0.4-1.5-1.1-2.9-1.9-4.2c-1.1-1.5-2.4-2.8-3.9-3.8c-1.6-1.1-3.5-1.9-5.4-2.5
	c-2.1-0.6-4.3-0.9-6.5-0.9c-2.8,0-5.5,0.5-8.1,1.5c-2.4,1-4.5,2.5-6.3,4.4c-1.8,2-3.2,4.3-4.1,6.9c-1,2.9-1.5,6-1.5,9
	c0,3.1,0.5,6.2,1.5,9.1c0.9,2.6,2.3,4.9,4.1,7c1.8,1.9,4,3.4,6.4,4.5c2.6,1.1,5.4,1.6,8.3,1.6c1.5,0,3-0.1,4.4-0.3
	c1.4-0.2,2.8-0.6,4.2-1.1c1.3-0.5,2.6-1.2,3.8-2c1.2-0.8,2.3-1.9,3.2-3l0.1-0.2v5.8h3V37H40.8V40.1z M33.7,78.9H21v42.3h12.8
	c14.4,0,21.4-7,21.4-21.5c0-7-1.8-12.2-5.3-15.6S40.8,78.9,33.7,78.9z M51.9,99.7c0,2.6-0.3,5.2-0.9,7.8c-0.5,2.1-1.5,4.1-3,5.8
	c-1.5,1.7-3.5,2.9-5.6,3.6c-2.9,0.9-5.8,1.3-8.8,1.2H24V81.9h9.7c3-0.1,6,0.3,8.9,1.2c2.1,0.7,4.1,1.9,5.6,3.5
	c1.4,1.6,2.4,3.5,2.9,5.6C51.7,94.6,51.9,97.2,51.9,99.7L51.9,99.7z M49.7,160.8c-0.9-0.8-1.9-1.5-3-2.1c-1.2-0.6-2.3-1.1-3.6-1.4
	c-1.2-0.4-2.5-0.7-3.8-1s-2.6-0.6-3.8-0.8c-1.8-0.4-3.6-0.8-5.3-1.4c-1.2-0.4-2.4-1-3.4-1.7c-0.8-0.6-1.4-1.3-1.9-2.2
	c-0.4-0.9-0.6-1.9-0.5-2.9c-0.1-2.3,1-4.5,2.9-5.8c1.9-1.4,4.8-2.1,8.6-2.1c1.6,0,3.3,0.2,4.8,0.6c1.3,0.4,2.5,0.9,3.7,1.7
	c1,0.7,1.8,1.5,2.5,2.5c0.6,0.9,1,1.8,1.3,2.8l0.1,0.4h2.9l-0.1-0.7c-0.3-1.4-0.8-2.7-1.5-3.9c-0.8-1.4-2-2.6-3.3-3.5
	c-1.4-1-3-1.7-4.7-2.2c-1.9-0.5-3.9-0.8-6-0.8c-2,0-4,0.3-5.9,0.8c-1.7,0.5-3.2,1.2-4.6,2.3c-1.2,0.9-2.2,2.1-3,3.5
	c-0.7,1.4-1.1,2.9-1,4.5c0,1.4,0.2,2.7,0.8,4c0.5,1.2,1.4,2.2,2.4,3c1.2,1,2.6,1.8,4.1,2.3c1.9,0.8,3.9,1.3,6,1.8
	c2.8,0.6,5.2,1.2,7.1,1.7c1.6,0.4,3.2,1.1,4.6,1.9c1,0.6,1.9,1.5,2.5,2.5c0.5,1.1,0.8,2.4,0.7,3.6c0,1.3-0.3,2.5-0.9,3.6
	c-0.6,1.1-1.4,2-2.5,2.8c-1.2,0.8-2.5,1.4-3.9,1.7c-3.4,0.8-6.8,0.8-10.2,0.1c-1.5-0.3-3-0.8-4.3-1.6c-1.3-0.8-2.3-1.8-3.2-3
	c-0.8-1.3-1.4-2.8-1.7-4.3l-0.1-0.5h-3l0.1,0.6c0.2,1.6,0.6,3.2,1.3,4.7c0.8,1.6,1.9,3,3.3,4.1c1.6,1.2,3.4,2.1,5.4,2.6
	c2.4,0.6,5,1,7.5,0.9c2.1,0,4.1-0.3,6.1-0.9c1.8-0.5,3.4-1.4,4.8-2.5c1.3-1.1,2.4-2.4,3.2-3.9c0.8-1.5,1.2-3.2,1.1-5
	c0-1.4-0.2-2.8-0.8-4.1C51.2,162.7,50.5,161.7,49.7,160.8z M175.4,137.8l-14.5,21l-14.7-21h-3.5l16.7,24.2v18.2h3V162l16.5-24.2
	H175.4z M144.9,82.3l25.8,38.6l0.2,0.2h2l0.1,0.1v-0.1h1.9V78.8h-3v38.8l-25.7-38.8h-2.2l-0.1-0.2v0.2h-1.9v42.3h3L144.9,82.3z
	 M98.2,59.4c8.6,0.1,16.2-5.5,18.7-13.7c1.2-3.8,1.5-7.8,1-11.7l0,0c-0.9-7-3.6-12.1-8.4-15.6c-7.6-5.5-18.1-4.8-24.9,1.8
	c-4.3,4.4-6.4,9.9-6.3,16.9c0.1,0.6,0.1,1.3,0.2,1.9c0.1,1.4,0.2,2.8,0.5,4.2C80.5,52.5,88.7,59.4,98.2,59.4L98.2,59.4z M95.1,56.3
	c-4.7-0.7-8.8-3.7-11-8c-4.3-8.7-3.8-17.1,1.4-24.7c2.2-3.2,5.5-5.2,10.1-5.9c1-0.2,2-0.3,2.9-0.3c3.6,0,7.1,1.3,9.9,3.5
	c3.2,2.4,5.1,5.8,6.4,11c0.2,1.2,0.4,2.4,0.5,3.6c0,0.6,0.1,1.2,0.1,1.7c0.1,6.3-1.8,11.2-5.8,15C105.7,55.8,100.3,57.3,95.1,56.3z
	 M97.4,78.8h3v42.3h-3V78.8z M145.2,38.5h17.2c5.4,0,9.7,4.3,9.7,9.7v9.4h3v-9.4c0-4.7-2.5-8.9-6.6-11.1c0.6-0.2,1.2-0.5,1.8-0.9
	c1-0.6,2-1.5,2.7-2.5l0,0c0.7-1,1.3-2.1,1.6-3.3c0.4-1.3,0.5-2.6,0.5-4c0.1-1.9-0.3-3.8-1.2-5.6c-0.7-1.4-1.8-2.6-3.1-3.4
	c-1.4-0.8-2.9-1.4-4.4-1.7c-1.7-0.3-3.4-0.5-5.2-0.5h-19.1v42.3h3V38.5z M169.1,33.5c-1.1,0.8-2.4,1.3-3.7,1.5
	c-1.8,0.3-3.6,0.5-5.4,0.5h-14.8V18.3h15.7c3.7,0,6.4,0.6,8.3,1.9c1.9,1.3,2.8,3.4,2.8,6.3c0,1.4-0.2,2.9-0.7,4.2
	C170.8,31.8,170,32.7,169.1,33.5L169.1,33.5z M24.8,200.2h-0.9l-1.2-3.3h-5c-0.2,0.5-0.4,1.1-0.6,1.6c-0.2,0.6-0.4,1.1-0.6,1.6h-0.8
	c0.3-0.9,0.7-1.7,1-2.6c0.3-0.8,0.6-1.7,1-2.5c0.3-0.8,0.6-1.7,1-2.5c0.3-0.8,0.7-1.7,1-2.6h1L24.8,200.2z M22.5,196.3l-2.4-5.7
	l-2.2,5.7H22.5z M34.5,200.2h-0.8l-1-2.7c-0.1-0.3-0.2-0.5-0.3-0.7c-0.1-0.2-0.3-0.4-0.4-0.6c-0.2-0.2-0.3-0.3-0.6-0.4
	c-0.2-0.1-0.4-0.1-0.7-0.1h-3.6v4.6h-0.7V190H31c0.4,0,0.8,0,1.2,0.1c0.4,0.1,0.8,0.2,1.1,0.4c0.3,0.2,0.6,0.5,0.7,0.8
	s0.3,0.8,0.3,1.3c0,0.3,0,0.7-0.1,1c-0.1,0.3-0.2,0.6-0.4,0.8c-0.2,0.2-0.4,0.4-0.6,0.6c-0.3,0.2-0.6,0.3-0.9,0.4
	c0.2,0.1,0.3,0.3,0.5,0.4c0.1,0.1,0.2,0.3,0.3,0.4c0.1,0.2,0.2,0.3,0.2,0.5c0.1,0.2,0.2,0.4,0.2,0.6L34.5,200.2z M27.1,194.9h3.5
	c0.5,0,0.9,0,1.3-0.1c0.4-0.1,0.7-0.2,0.9-0.4c0.2-0.2,0.4-0.4,0.5-0.7c0.1-0.3,0.2-0.6,0.2-1c0-0.7-0.2-1.2-0.7-1.5
	c-0.4-0.3-1.1-0.4-2-0.4h-3.7V194.9z M44.2,192.7c-0.1-0.3-0.2-0.6-0.4-0.8s-0.4-0.5-0.7-0.7c-0.3-0.2-0.6-0.3-1-0.5
	c-0.4-0.1-0.8-0.2-1.2-0.2c-0.6,0-1.1,0.1-1.6,0.3c-0.5,0.2-0.9,0.5-1.2,0.8c-0.3,0.4-0.6,0.8-0.8,1.4c-0.2,0.6-0.3,1.2-0.3,2
	s0.1,1.4,0.3,2c0.2,0.6,0.4,1,0.8,1.4c0.3,0.4,0.7,0.7,1.2,0.9c0.5,0.2,1,0.3,1.6,0.3c0.9,0,1.6-0.2,2.2-0.6c0.6-0.4,0.9-1,1.1-1.7
	h0.8c-0.1,0.5-0.2,0.9-0.5,1.3c-0.2,0.4-0.5,0.7-0.9,1c-0.3,0.3-0.7,0.5-1.2,0.6c-0.5,0.1-0.9,0.2-1.5,0.2c-0.7,0-1.4-0.1-1.9-0.4
	c-0.6-0.3-1.1-0.6-1.5-1.1c-0.4-0.5-0.7-1-0.9-1.7c-0.2-0.7-0.3-1.4-0.3-2.2c0-0.8,0.1-1.5,0.3-2.2c0.2-0.6,0.5-1.2,0.9-1.6
	c0.4-0.5,0.9-0.8,1.5-1c0.6-0.2,1.2-0.4,1.9-0.4c0.5,0,1,0.1,1.4,0.2c0.4,0.1,0.8,0.3,1.2,0.6s0.6,0.6,0.9,0.9
	c0.2,0.4,0.4,0.7,0.5,1.2H44.2z M55,200.2h-0.8v-5.1H48v5.1h-0.7V190H48v4.4h6.3V190H55V200.2z M58.7,200.2h-0.7V190h0.7V200.2z
	 M68.6,190.8h-3.6v9.4h-0.7v-9.4h-3.5V190h7.8V190.8z M77.8,200.2h-7.3V190h7.1v0.7h-6.3v3.8h5.9v0.7h-5.9v4.2h6.6V200.2z
	 M87.4,192.7c-0.1-0.3-0.2-0.6-0.4-0.8s-0.4-0.5-0.7-0.7c-0.3-0.2-0.6-0.3-1-0.5c-0.4-0.1-0.8-0.2-1.2-0.2c-0.6,0-1.1,0.1-1.6,0.3
	c-0.5,0.2-0.9,0.5-1.2,0.8c-0.3,0.4-0.6,0.8-0.8,1.4c-0.2,0.6-0.3,1.2-0.3,2s0.1,1.4,0.3,2c0.2,0.6,0.4,1,0.8,1.4
	c0.3,0.4,0.7,0.7,1.2,0.9c0.5,0.2,1,0.3,1.6,0.3c0.9,0,1.6-0.2,2.2-0.6c0.6-0.4,0.9-1,1.1-1.7h0.8c-0.1,0.5-0.2,0.9-0.5,1.3
	c-0.2,0.4-0.5,0.7-0.9,1c-0.3,0.3-0.7,0.5-1.2,0.6c-0.5,0.1-0.9,0.2-1.5,0.2c-0.7,0-1.4-0.1-1.9-0.4c-0.6-0.3-1.1-0.6-1.5-1.1
	c-0.4-0.5-0.7-1-0.9-1.7c-0.2-0.7-0.3-1.4-0.3-2.2c0-0.8,0.1-1.5,0.3-2.2c0.2-0.6,0.5-1.2,0.9-1.6c0.4-0.5,0.9-0.8,1.5-1
	c0.6-0.2,1.2-0.4,1.9-0.4c0.5,0,1,0.1,1.4,0.2c0.4,0.1,0.8,0.3,1.2,0.6s0.6,0.6,0.9,0.9c0.2,0.4,0.4,0.7,0.5,1.2H87.4z M97.5,190.8
	h-3.6v9.4h-0.7v-9.4h-3.5V190h7.8V190.8z M114.9,195c0,3.4-1.7,5.2-5.1,5.2h-3.1V190h3.1c1.7,0,3,0.4,3.9,1.2
	C114.4,192.1,114.9,193.4,114.9,195z M114.1,195c0-0.7-0.1-1.3-0.2-1.8c-0.1-0.5-0.4-1-0.7-1.3s-0.8-0.6-1.3-0.8s-1.3-0.3-2.1-0.3
	h-2.3v8.7h2.3c0.8,0,1.6-0.1,2.1-0.3c0.6-0.2,1-0.5,1.3-0.9c0.3-0.4,0.6-0.8,0.7-1.4C114,196.3,114.1,195.7,114.1,195z M124.4,200.2
	h-7.3V190h7.1v0.7h-6.3v3.8h5.9v0.7h-5.9v4.2h6.6V200.2z M130.4,200.4c-0.7,0-1.3-0.1-1.8-0.2c-0.5-0.1-0.9-0.4-1.3-0.6
	c-0.3-0.3-0.6-0.6-0.8-1c-0.2-0.4-0.3-0.8-0.3-1.3h0.7c0.1,0.5,0.2,0.8,0.4,1.1c0.2,0.3,0.5,0.5,0.8,0.7c0.3,0.2,0.6,0.3,1,0.4
	s0.8,0.1,1.2,0.1c0.5,0,0.9,0,1.2-0.1c0.4-0.1,0.7-0.2,0.9-0.4c0.3-0.2,0.5-0.4,0.6-0.7c0.1-0.3,0.2-0.5,0.2-0.9
	c0-0.3-0.1-0.6-0.2-0.9c-0.1-0.2-0.3-0.4-0.6-0.6c-0.3-0.2-0.6-0.3-1.1-0.5c-0.5-0.1-1-0.3-1.7-0.4c-0.6-0.1-1-0.3-1.4-0.4
	c-0.4-0.2-0.7-0.3-1-0.6c-0.3-0.2-0.5-0.5-0.6-0.7s-0.2-0.6-0.2-1c0-0.4,0.1-0.8,0.3-1.1s0.4-0.6,0.7-0.8c0.3-0.2,0.7-0.4,1.1-0.5
	s0.9-0.2,1.4-0.2s1,0.1,1.4,0.2c0.4,0.1,0.8,0.3,1.1,0.5c0.3,0.2,0.6,0.5,0.8,0.8c0.2,0.3,0.3,0.7,0.4,1.1h-0.7
	c-0.1-0.3-0.2-0.5-0.3-0.8c-0.2-0.2-0.4-0.4-0.6-0.6c-0.2-0.2-0.5-0.3-0.9-0.4c-0.3-0.1-0.7-0.1-1.2-0.1c-0.9,0-1.6,0.2-2.1,0.5
	s-0.7,0.8-0.7,1.4c0,0.3,0,0.5,0.1,0.7c0.1,0.2,0.2,0.4,0.4,0.5c0.2,0.2,0.5,0.3,0.8,0.4c0.3,0.1,0.8,0.2,1.3,0.3
	c0.3,0.1,0.6,0.1,0.9,0.2s0.6,0.1,0.9,0.2s0.6,0.2,0.9,0.3c0.3,0.1,0.5,0.3,0.7,0.5c0.2,0.2,0.4,0.4,0.5,0.7c0.1,0.3,0.2,0.6,0.2,1
	c0,0.4-0.1,0.8-0.3,1.2c-0.2,0.4-0.4,0.7-0.8,0.9c-0.3,0.3-0.7,0.5-1.2,0.6C131.5,200.3,131,200.4,130.4,200.4z M137.4,200.2h-0.7
	V190h0.7V200.2z M144.7,200.4c-0.7,0-1.4-0.1-2-0.4c-0.6-0.3-1.1-0.6-1.5-1.1c-0.4-0.5-0.8-1-1-1.7c-0.2-0.7-0.3-1.4-0.3-2.2
	c0-0.8,0.1-1.5,0.4-2.2c0.2-0.6,0.6-1.2,1-1.6c0.4-0.5,0.9-0.8,1.5-1s1.2-0.4,1.9-0.4c0.6,0,1.1,0.1,1.6,0.2
	c0.5,0.1,0.9,0.3,1.3,0.6c0.4,0.3,0.7,0.6,0.9,0.9c0.2,0.4,0.4,0.8,0.5,1.2h-0.8c0-0.3-0.2-0.6-0.4-0.8c-0.2-0.3-0.4-0.5-0.7-0.7
	c-0.3-0.2-0.7-0.4-1.1-0.5c-0.4-0.1-0.8-0.2-1.3-0.2c-0.6,0-1.1,0.1-1.6,0.3s-0.9,0.5-1.3,0.9c-0.4,0.4-0.6,0.9-0.8,1.4
	c-0.2,0.6-0.3,1.2-0.3,1.9c0,0.7,0.1,1.4,0.3,1.9c0.2,0.6,0.5,1,0.8,1.4s0.8,0.7,1.3,0.9c0.5,0.2,1,0.3,1.6,0.3
	c0.8,0,1.6-0.2,2.2-0.5s1.1-0.8,1.6-1.3V196h-2.8v-0.7h3.5v4.9h-0.4l-0.3-1.4c-0.2,0.3-0.5,0.5-0.8,0.7c-0.3,0.2-0.6,0.4-0.9,0.5
	c-0.3,0.1-0.7,0.2-1,0.3C145.4,200.3,145,200.4,144.7,200.4z M159.4,200.2h-1l-6.2-9.3v9.3h-0.7V190h1l6.2,9.3V190h0.7V200.2z
	 M169.3,200.2H162V190h7.1v0.7h-6.3v3.8h5.9v0.7h-5.9v4.2h6.6V200.2z M179.7,200.2h-0.8l-1-2.7c-0.1-0.3-0.2-0.5-0.3-0.7
	c-0.1-0.2-0.3-0.4-0.4-0.6c-0.2-0.2-0.3-0.3-0.6-0.4c-0.2-0.1-0.4-0.1-0.7-0.1h-3.6v4.6h-0.7V190h4.6c0.4,0,0.8,0,1.2,0.1
	c0.4,0.1,0.8,0.2,1.1,0.4c0.3,0.2,0.6,0.5,0.7,0.8s0.3,0.8,0.3,1.3c0,0.3,0,0.7-0.1,1c-0.1,0.3-0.2,0.6-0.4,0.8
	c-0.2,0.2-0.4,0.4-0.6,0.6c-0.3,0.2-0.6,0.3-0.9,0.4c0.2,0.1,0.3,0.3,0.5,0.4c0.1,0.1,0.2,0.3,0.3,0.4c0.1,0.2,0.2,0.3,0.2,0.5
	c0.1,0.2,0.2,0.4,0.2,0.6L179.7,200.2z M172.3,194.9h3.5c0.5,0,0.9,0,1.3-0.1c0.4-0.1,0.7-0.2,0.9-0.4c0.2-0.2,0.4-0.4,0.5-0.7
	c0.1-0.3,0.2-0.6,0.2-1c0-0.7-0.2-1.2-0.7-1.5c-0.4-0.3-1.1-0.4-2-0.4h-3.7V194.9z"/>
</svg>
