<?xml version="1.0" encoding="utf-8"?>
<!-- Generator: Adobe Illustrator 23.0.1, SVG Export Plug-In . SVG Version: 6.00 Build 0)  -->
<svg version="1.1" id="Layer_1" xmlns="http://www.w3.org/2000/svg" xmlns:xlink="http://www.w3.org/1999/xlink" x="0px" y="0px"
	 viewBox="0 0 47 47" style="enable-background:new 0 0 47 47;" xml:space="preserve">
<path d="M33.2,24.2l-8.6,5.6c-0.2,0.1-0.4,0.2-0.5,0.2c-0.2,0-0.4-0.1-0.6-0.2l-8.1-5.5c-0.5-0.3-0.6-0.9-0.3-1.4
	c0.3-0.5,0.9-0.6,1.4-0.3L23,27V12.5c0-0.6,0.4-1,1-1c0.6,0,1,0.4,1,1v14.7l7.1-4.6c0.5-0.3,1.1-0.2,1.4,0.3
	C33.8,23.3,33.6,23.9,33.2,24.2z"/>
</svg>
