<?xml version="1.0" encoding="utf-8"?>
<!-- Generator: Adobe Illustrator 23.0.1, SVG Export Plug-In . SVG Version: 6.00 Build 0)  -->
<svg version="1.1" id="Layer_1" xmlns="http://www.w3.org/2000/svg" xmlns:xlink="http://www.w3.org/1999/xlink" x="0px" y="0px"
	 viewBox="0 0 138.4 10.2" style="enable-background:new 0 0 138.4 10.2;" xml:space="preserve">
<path d="M4.6,0.1h-1l0,0.1C3.3,1,3,1.9,2.8,2.7L1.1,7.5C0.9,8.3,0.6,9.1,0.3,10l0,0.1h0.9l0-0.1c0.2-0.5,0.3-1,0.5-1.6
	C1.8,7.9,2,7.4,2.1,7h4.1l1,3.1l0,0.1h1L4.6,0.1L4.6,0.1z M5.9,6.2H2.4l1.7-5L5.9,6.2z M15.2,6.7c-0.1-0.2-0.1-0.4-0.2-0.5
	c-0.1-0.2-0.2-0.3-0.3-0.4c-0.1-0.1-0.2-0.2-0.3-0.3c0.2-0.1,0.4-0.2,0.6-0.3c0.2-0.2,0.4-0.4,0.6-0.6c0.1-0.2,0.3-0.5,0.3-0.8
	c0.1-0.3,0.1-0.6,0.1-0.9c0-0.5-0.1-1-0.2-1.3c-0.2-0.3-0.4-0.6-0.7-0.8c-0.3-0.2-0.6-0.3-0.9-0.4c-0.3-0.1-0.7-0.1-1.1-0.1H9.3v9.9
	h0.8V5.7H13c0.2,0,0.4,0,0.6,0.1C13.7,5.9,13.8,6,14,6.2c0.1,0.2,0.2,0.3,0.3,0.6c0.1,0.2,0.2,0.4,0.3,0.7l0.8,2.6l0,0.1h0.9
	l-0.9-2.8L15.2,6.7z M10.1,1.1h3c0.7,0,1.2,0.1,1.6,0.4c0.3,0.3,0.5,0.7,0.5,1.4c0,0.4,0,0.7-0.1,0.9C15,4,14.9,4.2,14.7,4.3
	c-0.2,0.2-0.4,0.3-0.7,0.3c-0.3,0.1-0.6,0.1-1.1,0.1h-2.9V1.1z M18.7,3.2c-0.1,0.5-0.2,1.1-0.2,1.8c0,0.7,0.1,1.3,0.2,1.9
	c0.1,0.5,0.4,1,0.6,1.3c0.3,0.4,0.6,0.6,1,0.8c0.4,0.2,0.8,0.3,1.3,0.3c0.7,0,1.3-0.2,1.8-0.5c0.5-0.4,0.7-0.9,0.9-1.6l0-0.1h0.8
	l0,0.1c-0.1,0.5-0.2,0.9-0.4,1.3c-0.2,0.4-0.4,0.7-0.7,0.9c-0.3,0.3-0.6,0.5-1,0.6c-0.4,0.1-0.8,0.2-1.3,0.2c-0.6,0-1.2-0.1-1.7-0.4
	c-0.5-0.2-0.9-0.6-1.3-1c-0.3-0.4-0.6-1-0.8-1.6c-0.2-0.6-0.3-1.3-0.3-2.1c0-0.8,0.1-1.5,0.3-2.1c0.2-0.6,0.5-1.2,0.8-1.6
	c0.3-0.4,0.8-0.8,1.3-1C20.4,0.1,21,0,21.6,0C22,0,22.4,0,22.8,0.2c0.4,0.1,0.7,0.3,1,0.6c0.3,0.3,0.6,0.6,0.8,0.9
	C24.8,2,25,2.4,25,2.8l0,0.1h-0.8l0-0.1c-0.1-0.3-0.2-0.5-0.3-0.8c-0.1-0.2-0.3-0.5-0.6-0.6c-0.2-0.2-0.5-0.3-0.8-0.4
	c-0.3-0.1-0.6-0.2-0.9-0.2c-0.5,0-0.9,0.1-1.3,0.3c-0.4,0.2-0.7,0.4-1,0.8C19,2.3,18.8,2.7,18.7,3.2z M32.6,0.1h0.8v9.9h-0.8V5.2
	h-5.1v4.8h-0.8V0.1h0.8v4.2h5.1V0.1z M35.7,0.1h0.8v9.9h-0.8V0.1z M38.1,0.1h6.8v0.9h-3v9h-0.8v-9h-3V0.1z M47.1,9.2h5.5v0.9h-6.4
	V0.1h6.1v0.9h-5.3v3.4h5v0.9h-5V9.2z M55,3.2c-0.1,0.5-0.2,1.1-0.2,1.8c0,0.7,0.1,1.3,0.2,1.9c0.1,0.5,0.4,1,0.6,1.3
	c0.3,0.4,0.6,0.6,1,0.8c0.4,0.2,0.8,0.3,1.3,0.3c0.7,0,1.3-0.2,1.8-0.5c0.5-0.4,0.7-0.9,0.9-1.6l0-0.1h0.8l0,0.1
	c-0.1,0.5-0.2,0.9-0.4,1.3c-0.2,0.4-0.4,0.7-0.7,0.9c-0.3,0.3-0.6,0.5-1,0.6c-0.4,0.1-0.8,0.2-1.3,0.2c-0.6,0-1.2-0.1-1.7-0.4
	c-0.5-0.2-0.9-0.6-1.3-1c-0.3-0.4-0.6-1-0.8-1.6c-0.2-0.6-0.3-1.3-0.3-2.1c0-0.8,0.1-1.5,0.3-2.1c0.2-0.6,0.5-1.2,0.8-1.6
	c0.3-0.4,0.8-0.8,1.3-1c0.5-0.2,1-0.4,1.7-0.4c0.4,0,0.8,0.1,1.2,0.2c0.4,0.1,0.7,0.3,1,0.6c0.3,0.3,0.6,0.6,0.8,0.9
	c0.2,0.4,0.4,0.7,0.4,1.2l0,0.1h-0.8l0-0.1c-0.1-0.3-0.2-0.5-0.3-0.8c-0.1-0.2-0.3-0.5-0.6-0.6c-0.2-0.2-0.5-0.3-0.8-0.4
	c-0.3-0.1-0.6-0.2-0.9-0.2c-0.5,0-0.9,0.1-1.3,0.3c-0.4,0.2-0.7,0.4-1,0.8C55.3,2.3,55.1,2.7,55,3.2z M62.4,0.1h6.8v0.9h-3v9h-0.8
	v-9h-3V0.1z M79.3,0.2h-2.7v9.9h2.7c2.9,0,4.4-1.7,4.4-5c0-1.6-0.4-2.9-1.1-3.7C81.9,0.6,80.8,0.2,79.3,0.2z M77.5,1.1h1.8
	c0.7,0,1.3,0.1,1.7,0.3c0.5,0.2,0.8,0.4,1.1,0.8c0.3,0.3,0.5,0.8,0.6,1.2c0.1,0.5,0.2,1.1,0.2,1.7c0,0.7-0.1,1.3-0.2,1.8
	c-0.1,0.5-0.3,0.9-0.6,1.3c-0.3,0.3-0.6,0.6-1.1,0.8c-0.5,0.2-1,0.3-1.7,0.3h-1.8V1.1z M86.2,9.2h5.5v0.9h-6.4V0.1h6.1v0.9h-5.3v3.4
	h5v0.9h-5V9.2z M99.7,6.4c0.1,0.3,0.2,0.6,0.2,1c0,0.4-0.1,0.8-0.2,1.2c-0.2,0.4-0.4,0.7-0.7,0.9c-0.3,0.3-0.6,0.5-1,0.6
	c-0.4,0.1-0.8,0.2-1.3,0.2c-0.6,0-1.1-0.1-1.5-0.2c-0.4-0.1-0.8-0.4-1.1-0.6c-0.3-0.3-0.5-0.6-0.7-1c-0.2-0.4-0.3-0.8-0.3-1.3l0-0.1
	h0.8l0,0.1C93.9,7.6,94,8,94.2,8.2c0.2,0.3,0.4,0.5,0.6,0.7c0.2,0.2,0.5,0.3,0.8,0.3c0.3,0.1,0.6,0.1,1,0.1c0.4,0,0.7,0,1-0.1
	c0.3-0.1,0.5-0.2,0.7-0.4c0.2-0.2,0.4-0.4,0.5-0.6C98.9,8,99,7.7,99,7.4c0-0.3,0-0.6-0.1-0.8c-0.1-0.2-0.2-0.4-0.5-0.5
	c-0.2-0.2-0.5-0.3-0.9-0.4c-0.4-0.1-0.9-0.3-1.4-0.4c-0.5-0.1-0.9-0.3-1.2-0.4c-0.3-0.2-0.6-0.3-0.9-0.6c-0.2-0.2-0.4-0.5-0.5-0.7
	c-0.1-0.3-0.2-0.6-0.2-1c0-0.4,0.1-0.8,0.2-1.1c0.1-0.3,0.4-0.6,0.6-0.8c0.3-0.2,0.6-0.4,1-0.5C95.5,0,95.9,0,96.4,0
	c0.4,0,0.9,0.1,1.2,0.2c0.4,0.1,0.7,0.3,1,0.5c0.3,0.2,0.5,0.5,0.7,0.8c0.2,0.3,0.3,0.7,0.3,1.1l0,0.1h-0.8l0-0.1
	c-0.1-0.2-0.1-0.5-0.3-0.7c-0.1-0.2-0.3-0.4-0.5-0.6c-0.2-0.2-0.4-0.3-0.7-0.4c-0.3-0.1-0.6-0.1-0.9-0.1c-0.7,0-1.3,0.2-1.7,0.5
	c-0.4,0.3-0.6,0.7-0.6,1.2c0,0.2,0,0.5,0.1,0.6c0.1,0.2,0.2,0.3,0.3,0.5C94.8,3.8,95,4,95.3,4.1c0.3,0.1,0.6,0.2,1.1,0.3
	c0.2,0.1,0.5,0.1,0.8,0.2c0.3,0.1,0.5,0.1,0.8,0.2c0.3,0.1,0.5,0.2,0.7,0.3c0.2,0.1,0.4,0.3,0.6,0.5C99.4,5.8,99.6,6.1,99.7,6.4z
	 M101.8,0.1h0.8v9.9h-0.8V0.1z M109.3,5.1h3.2v4.9H112l-0.2-1.2c-0.2,0.2-0.3,0.4-0.5,0.5c-0.2,0.2-0.5,0.4-0.8,0.5
	c-0.3,0.1-0.6,0.2-0.9,0.3c-0.3,0.1-0.6,0.1-0.9,0.1c-0.6,0-1.2-0.1-1.7-0.4c-0.5-0.2-1-0.6-1.3-1.1c-0.4-0.4-0.6-1-0.8-1.6
	c-0.2-0.6-0.3-1.3-0.3-2.1c0-0.8,0.1-1.5,0.3-2.1c0.2-0.6,0.5-1.2,0.8-1.6c0.4-0.4,0.8-0.8,1.3-1c0.5-0.2,1.1-0.4,1.7-0.4
	c0.5,0,0.9,0.1,1.3,0.2c0.4,0.1,0.8,0.3,1.1,0.6c0.3,0.3,0.6,0.6,0.8,0.9c0.2,0.4,0.4,0.7,0.4,1.2l0,0.1h-0.9l0-0.1
	c0-0.3-0.1-0.5-0.3-0.8c-0.2-0.2-0.4-0.5-0.6-0.6c-0.2-0.2-0.5-0.3-0.9-0.4c-0.3-0.1-0.7-0.2-1.1-0.2c-0.5,0-0.9,0.1-1.3,0.3
	c-0.4,0.2-0.7,0.4-1,0.8c-0.3,0.4-0.5,0.8-0.7,1.3c-0.2,0.5-0.2,1.1-0.2,1.8c0,0.7,0.1,1.3,0.2,1.8c0.2,0.5,0.4,1,0.7,1.3
	c0.3,0.4,0.6,0.6,1,0.8c0.4,0.2,0.9,0.3,1.3,0.3c0.7,0,1.3-0.2,1.8-0.4c0.5-0.3,0.9-0.7,1.3-1.2V6.1h-2.4V5.1z M120.3,0.1h0.8v9.9
	h-1l0,0l-5-8.6v8.6h-0.8V0.1h1l0,0l5,8.6V0.1z M123.9,9.2h5.5v0.9h-6.4V0.1h6.1v0.9h-5.3v3.4h5v0.9h-5V9.2z M137.3,7.3l-0.2-0.6
	c-0.1-0.2-0.1-0.4-0.2-0.5c-0.1-0.2-0.2-0.3-0.3-0.4c-0.1-0.1-0.2-0.2-0.3-0.3c0.2-0.1,0.4-0.2,0.6-0.3c0.2-0.2,0.4-0.4,0.6-0.6
	c0.1-0.2,0.3-0.5,0.3-0.8c0.1-0.3,0.1-0.6,0.1-0.9c0-0.5-0.1-1-0.2-1.3c-0.2-0.3-0.4-0.6-0.7-0.8c-0.3-0.2-0.6-0.3-0.9-0.4
	c-0.3-0.1-0.7-0.1-1.1-0.1h-3.9v9.9h0.8V5.7h2.9c0.2,0,0.4,0,0.6,0.1c0.2,0.1,0.3,0.2,0.4,0.4c0.1,0.2,0.2,0.3,0.3,0.6
	c0.1,0.2,0.2,0.5,0.3,0.7l0.9,2.7h0.9L137.3,7.3z M131.9,1.1h3c0.7,0,1.2,0.1,1.6,0.4c0.3,0.3,0.5,0.7,0.5,1.4c0,0.4,0,0.7-0.1,0.9
	c-0.1,0.2-0.2,0.4-0.4,0.6c-0.2,0.2-0.4,0.3-0.7,0.3c-0.3,0.1-0.6,0.1-1.1,0.1h-2.9V1.1z"/>
</svg>
