<?xml version="1.0" encoding="utf-8"?>
<!-- Generator: Adobe Illustrator 23.0.1, SVG Export Plug-In . SVG Version: 6.00 Build 0)  -->
<svg version="1.1" id="instagram" xmlns="http://www.w3.org/2000/svg" xmlns:xlink="http://www.w3.org/1999/xlink" x="0px" y="0px"
	 viewBox="0 0 25.8 25.8" style="enable-background:new 0 0 25.8 25.8;" xml:space="preserve">
<style type="text/css">
	.st0{fill:#FFFFFF;}
</style>
<g>
	<path class="st0" d="M15.7,6.1H9.9c-0.1,0-0.3,0-0.4,0C7.4,6.2,5.7,8,5.9,10.2v5.8c-0.1,1.1,0.4,2.2,1.2,3C7.8,19.6,8.9,20,9.9,20
		h5.7c1.1,0,2.1-0.4,2.9-1.1c0.8-0.8,1.2-1.9,1.2-3l0-5.8c0-0.1,0-0.3,0-0.4C19.6,7.6,17.8,6,15.7,6.1z M18.5,15.9
		c0,0.8-0.2,1.5-0.8,2c-0.6,0.5-1.3,0.8-2,0.7H9.9c-0.7,0-1.5-0.2-2-0.7c-0.5-0.6-0.8-1.3-0.8-2.1v-5.8c0-0.2,0-0.3,0-0.5
		c0.1-1.4,1.4-2.4,2.8-2.3h5.8c0.8,0,1.5,0.2,2.1,0.8c0.5,0.6,0.8,1.3,0.7,2V15.9z M17.3,9.3C17.3,9.3,17.3,9.3,17.3,9.3
		c0,0.5-0.4,0.8-0.8,0.8c0,0,0,0,0,0h0c-0.5,0-0.8-0.4-0.8-0.8s0.4-0.8,0.8-0.8S17.3,8.8,17.3,9.3z M12.8,9.4c-2,0-3.6,1.6-3.6,3.6
		s1.6,3.6,3.6,3.6c0,0,0.1,0,0.1,0c2,0,3.5-1.7,3.5-3.6C16.4,11,14.7,9.4,12.8,9.4z M12.8,15.3c-1.3,0-2.3-1-2.3-2.3
		c0-1.3,1-2.3,2.3-2.3c1.3,0,2.3,1,2.3,2.3C15.1,14.3,14,15.3,12.8,15.3z"/>
</g>
</svg>
