<?xml version="1.0" encoding="utf-8"?>
<!-- Generator: Adobe Illustrator 23.0.1, SVG Export Plug-In . SVG Version: 6.00 Build 0)  -->
<svg version="1.1" id="youtube" xmlns="http://www.w3.org/2000/svg" xmlns:xlink="http://www.w3.org/1999/xlink" x="0px" y="0px"
	 viewBox="0 0 25.8 25.8" style="enable-background:new 0 0 25.8 25.8;" xml:space="preserve">
<style type="text/css">
	.st0{fill:#FFFFFF;}
</style>
<path d="M21,17.4c0,1.6-1.3,2.9-2.9,2.9c0,0,0,0,0,0H8c-1.6,0-2.9-1.3-2.9-2.9V15c0-1.6,1.3-2.9,2.9-2.9h0h10c1.6,0,2.9,1.3,2.9,2.9
	c0,0,0,0,0,0V17.4z"/>
<path class="st0" d="M7.4,14h0.9v4.6h0.9V14h0.9v-0.8H7.4V14z M13.9,6.6c-0.3-0.2-0.6-0.3-0.9-0.3c-0.4,0-0.7,0.1-1,0.3
	c-0.2,0.2-0.4,0.5-0.4,0.8l0,0v2.3c0,0.3,0.1,0.7,0.4,0.9c0.3,0.2,0.6,0.3,0.9,0.3c0.4,0,0.7-0.1,1-0.3c0.2-0.2,0.4-0.6,0.3-0.9V7.4
	C14.2,7.1,14.1,6.8,13.9,6.6z M13.3,9.7c0,0.1,0,0.2-0.1,0.3c-0.1,0.1-0.2,0.1-0.3,0.1c-0.1,0-0.2,0-0.3-0.1
	c-0.1-0.1-0.1-0.2-0.1-0.3V7.3c0-0.1,0-0.2,0.1-0.2C12.7,7,12.8,7,12.9,7c0.1,0,0.2,0,0.3,0.1c0.1,0.1,0.1,0.1,0.1,0.2V9.7z
	 M14.9,14.5c-0.1,0-0.3,0-0.4,0.1c-0.1,0.1-0.2,0.2-0.3,0.3v-1.7h-0.8v5.4h0.8v-0.3c0.1,0.1,0.2,0.2,0.3,0.3
	c0.1,0.1,0.3,0.1,0.4,0.1c0.2,0,0.4-0.1,0.5-0.2c0.1-0.2,0.2-0.4,0.2-0.7v-2.2c0-0.3-0.1-0.5-0.2-0.7C15.3,14.6,15.1,14.5,14.9,14.5
	z M14.9,17.7c0,0.1,0,0.2-0.1,0.3C14.7,18,14.7,18,14.6,18c-0.1,0-0.1,0-0.2,0c-0.1,0-0.1-0.1-0.2-0.1v-2.5c0-0.1,0.1-0.1,0.2-0.1
	c0.1,0,0.1,0,0.2,0c0.1,0,0.2,0,0.3,0.1c0.1,0.1,0.1,0.2,0.1,0.3L14.9,17.7z M12,17.6c-0.1,0.1-0.2,0.2-0.2,0.2
	c-0.1,0-0.1,0.1-0.2,0.1c-0.1,0-0.1,0-0.2-0.1c0-0.1-0.1-0.1-0.1-0.2v-3.1h-0.8v3.3c0,0.2,0,0.4,0.1,0.5c0.1,0.1,0.3,0.2,0.4,0.2
	c0.2,0,0.3,0,0.5-0.1c0.2-0.1,0.3-0.2,0.5-0.4v0.4h0.8v-4H12L12,17.6L12,17.6z M15,6.4h0.9v3.4c0,0.1,0,0.2,0.1,0.2
	C16,10,16,10,16.1,10c0.1,0,0.2,0,0.3-0.1c0.1-0.1,0.2-0.1,0.3-0.2V6.4h0.9v4.4h-0.9v-0.5c-0.1,0.2-0.3,0.3-0.5,0.4
	c-0.2,0.1-0.3,0.1-0.5,0.1c-0.2,0-0.4-0.1-0.5-0.2C15,10.5,14.9,10.2,15,10L15,6.4z M9.2,4.8l0.7,2.4h0.1l0.6-2.4h1l-1.2,3.5v2.5h-1
	V8.4L8.1,4.8H9.2z M17.3,14.5c-0.3,0-0.6,0.1-0.9,0.3c-0.2,0.2-0.4,0.5-0.3,0.8v1.8c0,0.3,0.1,0.7,0.3,0.9c0.2,0.2,0.5,0.3,0.8,0.3
	c0.3,0,0.7-0.1,0.9-0.3c0.2-0.3,0.3-0.6,0.3-0.9v-0.2h-0.8v0.2c0,0.2,0,0.3-0.1,0.5C17.5,18,17.4,18,17.3,18c-0.1,0-0.2,0-0.3-0.1
	c-0.1-0.1-0.1-0.3-0.1-0.4v-0.8h1.5v-1c0-0.3-0.1-0.6-0.3-0.9C17.9,14.6,17.6,14.5,17.3,14.5z M17.6,16.1h-0.7v-0.4
	c0-0.1,0-0.3,0.1-0.4c0.1-0.1,0.2-0.1,0.3-0.1c0.1,0,0.2,0,0.3,0.1c0.1,0.1,0.1,0.2,0.1,0.4L17.6,16.1L17.6,16.1z"/>
</svg>
