<?xml version="1.0" encoding="utf-8"?>
<!-- Generator: Adobe Illustrator 23.0.1, SVG Export Plug-In . SVG Version: 6.00 Build 0)  -->
<svg version="1.1" id="Layer_1" xmlns="http://www.w3.org/2000/svg" xmlns:xlink="http://www.w3.org/1999/xlink" x="0px" y="0px"
	 viewBox="0 0 61.3 63.1" style="enable-background:new 0 0 61.3 63.1;" xml:space="preserve">
<g>
	<polygon points="37.2,41.2 37.3,41 35.6,41 27.4,48.9 27.4,41 26.2,41 26.2,55.8 27.4,55.8 27.4,50.7 30.3,47.9 36.1,55.8 
		36.1,55.8 37.8,55.8 31.2,46.9 	"/>
	<path d="M14.1,14.1h4v2.5c-0.6,0.8-1.4,1.4-2.2,1.9c-1,0.5-2,0.7-3.1,0.7c-0.8,0-1.6-0.1-2.3-0.4c-0.7-0.3-1.3-0.7-1.8-1.3
		c-0.5-0.6-0.9-1.3-1.2-2c-0.6-1.8-0.6-3.7,0-5.5c0.3-0.7,0.6-1.4,1.2-2c0.5-0.5,1.1-1,1.8-1.2c0.7-0.3,1.5-0.4,2.3-0.4
		c0.6,0,1.3,0.1,1.9,0.3c0.5,0.1,1,0.4,1.5,0.7c0.4,0.3,0.8,0.6,1,1c0.2,0.3,0.4,0.7,0.5,1l0.1,0.2h1.3L19,9c-0.1-0.5-0.4-1-0.7-1.5
		c-0.4-0.5-0.8-1-1.4-1.4c-0.6-0.4-1.2-0.7-1.9-0.9C14.3,5.1,13.6,5,12.8,5c0,0-0.1,0-0.1,0c-0.9,0-1.9,0.2-2.8,0.5
		C9.1,5.9,8.3,6.4,7.7,7.1C7.1,7.8,6.6,8.6,6.3,9.5c-0.4,1-0.5,2.1-0.5,3.2c0,1.1,0.2,2.1,0.5,3.2c0.3,0.9,0.8,1.7,1.4,2.4
		c0.6,0.7,1.4,1.2,2.2,1.6c0.9,0.4,1.8,0.6,2.8,0.6c0,0,0.1,0,0.1,0c0.5,0,1,0,1.5-0.1c0.5-0.1,1-0.2,1.5-0.4
		c0.5-0.2,0.9-0.4,1.3-0.7c0.4-0.3,0.7-0.6,1-0.9v1.8h1.2v-7.3h-5.3V14.1z"/>
	<path d="M17.4,49L17.4,49c-0.3-0.3-0.7-0.5-1-0.7c-0.4-0.2-0.8-0.4-1.3-0.5c-0.4-0.1-0.9-0.3-1.3-0.3c-0.5-0.1-0.9-0.2-1.3-0.3
		c-0.6-0.1-1.2-0.3-1.8-0.5c-0.4-0.1-0.8-0.3-1.2-0.6c-0.3-0.2-0.5-0.4-0.6-0.7c-0.1-0.3-0.2-0.6-0.2-1c0-0.8,0.3-1.5,1-1.9
		c0.9-0.5,1.9-0.8,2.9-0.7c0.5,0,1.1,0.1,1.6,0.2c0.4,0.1,0.9,0.3,1.2,0.6c0.3,0.2,0.6,0.5,0.8,0.9c0.2,0.3,0.3,0.6,0.4,0.9l0.1,0.2
		h1.2l-0.1-0.3c-0.1-0.5-0.3-1-0.5-1.4c-0.3-0.5-0.7-0.9-1.2-1.2c-0.5-0.3-1.1-0.6-1.7-0.8c-0.7-0.2-1.3-0.3-2-0.3
		c-0.1,0-0.1,0-0.2,0c-0.7,0-1.4,0.1-2,0.3c-0.6,0.2-1.1,0.4-1.6,0.8c-0.4,0.3-0.8,0.8-1.1,1.3c-0.2,0.5-0.4,1.1-0.4,1.6
		c0,0.5,0.1,1,0.3,1.4c0.2,0.4,0.5,0.8,0.9,1.1c0.4,0.3,0.9,0.6,1.4,0.8c0.7,0.3,1.4,0.5,2.1,0.6c1,0.2,1.8,0.4,2.4,0.6
		c0.6,0.2,1.1,0.4,1.6,0.7c0.3,0.2,0.6,0.5,0.8,0.8c0.2,0.4,0.3,0.8,0.2,1.2c0,0.4-0.1,0.8-0.3,1.2c-0.2,0.4-0.5,0.7-0.8,0.9
		c-0.4,0.3-0.8,0.5-1.3,0.6c-1.2,0.3-2.3,0.3-3.5,0c-0.5-0.1-1-0.3-1.5-0.5c-0.4-0.3-0.8-0.6-1.1-1c-0.3-0.4-0.5-0.9-0.6-1.4l0-0.2
		H6.8l0,0.3c0.1,0.6,0.2,1.1,0.5,1.7c0.3,0.6,0.7,1.1,1.2,1.4c0.6,0.4,1.2,0.7,1.9,0.9c0.8,0.2,1.6,0.3,2.5,0.3c0.1,0,0.1,0,0.2,0
		c0.7,0,1.4-0.1,2.1-0.3c0.6-0.2,1.2-0.5,1.7-0.9c0.5-0.4,0.9-0.8,1.1-1.4c0.3-0.5,0.4-1.2,0.4-1.8c0-0.5-0.1-1-0.3-1.4
		C17.9,49.6,17.7,49.3,17.4,49z"/>
	<path d="M11.8,23.8H7.3v14.8h4.5c5,0,7.5-2.5,7.5-7.5c0.2-2-0.5-4-1.9-5.5C15.8,24.3,13.8,23.6,11.8,23.8z M18,31.1L18,31.1
		c0,0.9-0.1,1.8-0.3,2.7c-0.2,0.7-0.5,1.4-1,2c-0.5,0.6-1.2,1-1.9,1.2c-1,0.3-2,0.5-3,0.4H8.5V25h3.3c1,0,2.1,0.1,3,0.4
		c0.7,0.2,1.4,0.6,1.9,1.2c0.5,0.5,0.8,1.2,1,1.9C17.9,29.4,18,30.2,18,31.1z"/>
	<path d="M34.8,6.4c-2.7-1.9-6.4-1.7-8.7,0.6c-1.5,1.6-2.3,3.7-2.2,5.9c0,0.2,0,0.4,0.1,0.7c0,0.5,0.1,1,0.2,1.4
		c0.5,3.3,3.3,5.7,6.7,5.7c0,0,0,0,0,0h0c0,0,0,0,0.1,0c3,0,5.7-2,6.5-4.8c0.4-1.3,0.5-2.7,0.3-4.1C37.6,9.7,36.5,7.7,34.8,6.4z
		 M34.7,18.1c-1.3,1.2-3.2,1.7-4.9,1.4l0,0l0,0c-1.6-0.2-3-1.3-3.7-2.7c-1.5-2.7-1.3-6,0.5-8.4c0.8-1.1,2.1-1.9,3.4-2
		c0.3-0.1,0.7-0.1,1-0.1c1.2,0,2.4,0.4,3.3,1.2c1.2,0.9,1.9,2.3,2.2,3.7c0.1,0.4,0.1,0.8,0.2,1.2l0,0.1c0,0.2,0,0.4,0,0.5
		C36.7,14.9,36,16.8,34.7,18.1z"/>
	<polygon points="49.2,48.2 44.2,41 44.2,41 42.7,41 48.6,49.5 48.6,55.8 49.8,55.8 49.8,49.5 55.7,41 54.2,41 	"/>
	<polygon points="0,0 0,63.1 0.5,63.1 0.5,0.5 60.8,0.5 60.8,63.1 61.3,63.1 61.3,0 	"/>
	<rect x="30.4" y="23.8" width="1.2" height="14.9"/>
	<path d="M53.5,11.8c0.3-0.4,0.4-0.7,0.6-1.2c0.1-0.5,0.2-0.9,0.2-1.4c0-0.7-0.1-1.4-0.4-2c-0.3-0.5-0.6-0.9-1.1-1.2
		c-0.5-0.3-1-0.5-1.6-0.6c-0.6-0.1-1.2-0.2-1.8-0.2c0,0,0,0,0,0h-6.7v14.9h1.2l0-6.6h5.9c1.8,0,3.3,1.5,3.3,3.3v3.3h1.2v-3.3
		c0-1.6-0.8-3-2.2-3.8c0.2-0.1,0.3-0.1,0.4-0.2C52.9,12.5,53.3,12.2,53.5,11.8z M52,11.6c-0.4,0.3-0.8,0.4-1.2,0.5
		c-0.6,0.1-1.2,0.2-1.8,0.2h-5V6.5l5.3,0c1-0.1,2,0.2,2.8,0.6c0.7,0.5,1,1.3,0.9,2.1c0,0.5-0.1,1-0.2,1.4C52.6,11,52.3,11.4,52,11.6
		z"/>
	<polygon points="42.6,38.6 43.8,38.6 43.8,25.4 52.6,38.5 52.7,38.6 54.2,38.6 54.2,23.8 52.9,23.8 52.9,37 44.2,23.8 44.2,23.8 
		42.6,23.8 	"/>
</g>
</svg>
