<?xml version="1.0" encoding="utf-8"?>
<!-- Generator: Adobe Illustrator 23.0.1, SVG Export Plug-In . SVG Version: 6.00 Build 0)  -->
<svg version="1.1" id="Layer_1" xmlns="http://www.w3.org/2000/svg" xmlns:xlink="http://www.w3.org/1999/xlink" x="0px" y="0px"
	 viewBox="0 0 134.3 116" style="enable-background:new 0 0 134.3 116;" xml:space="preserve">
<style type="text/css">
	.st0{fill:#424242;transition:0.8s;}
</style>
<path class="st0" d="M134.3,44.4l-1,1.2l-11.2-9.4V15.5h-9.3H95.1v0h-8.5v-14H62.4V45h-1.5V27.7H26.5v-1.5h34.4V1.5H48.7V0h39.4v14
	h7v0h17.8h10.8v21.5L134.3,44.4z M122.2,53.2h1.5V116H8.4V61.6v-0.4C6.6,60.3,0,56.4,0,46.2c0-10.2,6.6-14.1,8.4-15V0h18.1v0h22.2
	v1.5H26.5v0H9.9v29.2v1.1v29.8v12.9h50.9V60.7h1.5v14.5v0.8V87h-1.5V75.9H9.9v38.6h72.4V89.7h1.5v24.8h38.3V66.8H83.9v8.4h-1.5v-9.9
	h39.8V53.2z M8.4,59.5V32.9c-2.1,1.2-6.9,4.7-6.9,13.3C1.5,54.7,6.3,58.3,8.4,59.5z"/>
</svg>
