<!-- <?xml version="1.0" encoding="utf-8"?> -->
<!-- Generator: Adobe Illustrator 23.0.1, SVG Export Plug-In . SVG Version: 6.00 Build 0)  -->
<svg version="1.1" id="Layer_3" xmlns="http://www.w3.org/2000/svg" xmlns:xlink="http://www.w3.org/1999/xlink" x="0px" y="0px"
	 viewBox="0 0 115.4 115.4" style="enable-background:new 0 0 115.4 115.4;" xml:space="preserve">
<style type="text/css">
	.st0{fill:#424242;transition:0.8s;}
</style>
<path class="st0" d="M110.5,71l-0.1,0c-1,0.2-3.7,0.5-4.7,0.5c-1.6,0.1-3.2-0.2-4.6-0.9V58.4v-1.5V44.7c1.3-0.6,2.7-0.8,4.1-0.8
	c0.9,0,3.9,0.4,5,0.5l0.1,0c2.7,0,4.9-2.2,4.9-4.9v-6.7c0-2.7-2.2-4.9-4.9-4.9l-0.1,0c-1,0.2-3.7,0.5-4.7,0.5
	c-1.5,0.1-3.1-0.2-4.5-0.8V14.2H87.4c-0.6-1.3-0.8-2.7-0.8-4.1c0-0.9,0.4-3.9,0.5-5l0-0.1C87.2,2.2,85,0,82.3,0h-6.7
	c-2.7,0-4.9,2.2-4.9,4.9l0,0.1c0.2,1,0.5,3.7,0.5,4.7c0.1,1.5-0.2,3.1-0.8,4.5H56.9v0H44.7c-0.6-1.3-0.8-2.7-0.8-4.1
	c0-0.9,0.4-3.9,0.5-5l0-0.1c0-2.7-2.2-4.9-4.9-4.9h-6.7C30.2,0,28,2.2,28,4.9L28,5c0.2,1,0.5,3.7,0.5,4.7c0.1,1.5-0.2,3.1-0.8,4.5
	H14.2v13.6c-1.3,0.6-2.7,0.8-4.1,0.8c-0.9,0-3.9-0.4-5-0.5l-0.1,0C2.2,28,0,30.2,0,32.9v6.7c0,2.7,2.2,4.9,4.9,4.9l0.1,0
	C6,44.4,8.7,44,9.7,44c1.5-0.1,3.1,0.2,4.5,0.8v13.6h0v12.1c-1.3,0.6-2.7,0.8-4.1,0.8c-0.9,0-3.9-0.4-5-0.5l-0.1,0
	c-2.7,0-4.9,2.2-4.9,4.9v6.7c0,2.7,2.2,4.9,4.9,4.9l0.1,0c1-0.2,3.7-0.5,4.7-0.5c1.5-0.1,3.1,0.2,4.5,0.8V101h13.6
	c0.6,1.3,0.8,2.7,0.8,4.1c0,0.9-0.4,3.9-0.5,5l0,0.1c0,2.7,2.2,4.9,4.9,4.9h6.7c2.7,0,4.9-2.2,4.9-4.9l0-0.1c-0.2-1-0.5-3.7-0.5-4.7
	c-0.1-1.5,0.2-3.1,0.8-4.5h13.6v0h12c0.7,1.3,1,2.8,0.9,4.3c0,0.9-0.4,3.9-0.5,5l0,0.1c0,2.7,2.2,4.9,4.9,4.9h6.7
	c2.7,0,4.9-2.2,4.9-4.9l0-0.1c-0.2-1-0.5-3.7-0.5-4.7c-0.1-1.6,0.2-3.2,0.9-4.7H101V87.8c1.3-0.6,2.8-0.9,4.3-0.8
	c0.9,0,3.9,0.4,5,0.5l0.1,0c2.7,0,4.9-2.2,4.9-4.9v-6.7C115.4,73.2,113.2,71,110.5,71z M58.4,15.7h13l0.2-0.4
	c0.8-1.7,1.2-3.7,1.2-5.6c0-1.2-0.5-4.3-0.6-4.8c0-1.9,1.6-3.4,3.4-3.4h6.7c1.9,0,3.4,1.5,3.4,3.4c-0.1,0.5-0.6,4.1-0.6,5.1
	c-0.1,1.8,0.3,3.6,1.1,5.3l0.2,0.4h13v13l0.4,0.2c1.7,0.8,3.7,1.3,5.6,1.2c1.2,0,4.3-0.5,4.8-0.6c1.9,0,3.4,1.6,3.4,3.4v6.7
	c0,1.9-1.5,3.4-3.4,3.4c-0.5-0.1-4-0.6-5.1-0.6c0,0,0,0,0,0c-1.8-0.1-3.6,0.3-5.3,1.1l-0.4,0.2v13h-13l-0.2,0.4
	c-0.8,1.7-1.2,3.7-1.2,5.6c0,1.2,0.5,4.3,0.6,4.8c0,1.9-1.6,3.4-3.4,3.4h-6.7c-1.9,0-3.4-1.5-3.4-3.4c0.1-0.5,0.6-4.1,0.6-5.1
	c0.1-1.8-0.3-3.6-1.1-5.3l-0.2-0.4h-13v-13l0,0v0l-0.4-0.2c-0.2-0.1-0.4-0.1-0.6-0.2c-1.6-0.7-3.3-1-5-0.9c-1.2,0-4.3,0.5-4.8,0.6
	c-0.5,0-0.9-0.1-1.3-0.3c-1.2-0.5-2.1-1.7-2.1-3.1v-6.7c0-1.9,1.5-3.4,3.4-3.4c0.5,0.1,4,0.6,5.1,0.6c0,0,0,0,0,0
	c1.8,0.1,3.6-0.3,5.2-1.1l0.4-0.2v0l0,0V15.7z M9.7,42.5c-1.2,0-4.3,0.5-4.8,0.6c-1.9,0-3.4-1.6-3.4-3.4v-6.7c0-1.9,1.5-3.4,3.4-3.4
	c0.5,0.1,4.1,0.6,5.1,0.6c0,0,0,0,0,0c1.8,0.1,3.6-0.3,5.3-1.1l0.4-0.2v-13h13l0.2-0.4c0.8-1.7,1.2-3.7,1.2-5.6
	c0-1.1-0.4-4.1-0.6-4.8c0-1.9,1.6-3.4,3.4-3.4h6.7C41.5,1.5,43,3,43,4.9C43,5.4,42.5,8.9,42.5,10c-0.1,1.8,0.3,3.6,1.1,5.3l0.2,0.4
	h13.1v12.1c-0.5,0.2-1.1,0.4-1.6,0.5c-0.6,0.1-1.3,0.2-1.9,0.2c-0.2,0-0.4,0-0.6,0c-0.9,0-3.9-0.4-5-0.5l-0.1,0
	c-2.7,0-4.9,2.2-4.9,4.9v6.7c0,2,1.2,3.8,3,4.5c0.6,0.3,1.2,0.4,1.9,0.4l0.1,0c1-0.2,3.7-0.5,4.7-0.5c1.5-0.1,2.9,0.2,4.3,0.7
	c0.1,0,0.1,0,0.2,0.1v12.1H44.8c-0.6-1.3-0.8-2.7-0.8-4.1c0-0.9,0.4-3.9,0.5-5l0-0.1c0-2.7-2.2-4.9-4.9-4.9h0h-6.7h0
	c-2.7,0-4.9,2.2-4.9,4.9l0,0.1c0.2,1,0.5,3.7,0.5,4.7c0.1,1.5-0.2,3.1-0.8,4.5H15.7v-13l-0.4-0.2C13.5,42.8,11.6,42.4,9.7,42.5z
	 M56.9,99.5h-13l-0.2,0.4c-0.8,1.7-1.2,3.7-1.2,5.6c0,1.2,0.5,4.3,0.6,4.8c0,1.9-1.6,3.4-3.4,3.4h-6.7c-1.9,0-3.4-1.5-3.4-3.4
	c0.1-0.5,0.6-4.1,0.6-5.1c0.1-1.8-0.3-3.6-1.1-5.3l-0.2-0.4h-13v-13l-0.4-0.2c-1.7-0.8-3.7-1.2-5.6-1.2c-1.1,0-4.1,0.4-4.8,0.6
	c-1.9,0-3.4-1.6-3.4-3.4v-6.7c0-1.9,1.5-3.4,3.4-3.4c0.5,0.1,4.1,0.6,5.1,0.6c0,0,0,0,0,0c1.8,0.1,3.6-0.3,5.3-1.1l0.4-0.2v-13h13
	l0,0h0l0.2-0.4c0.8-1.7,1.2-3.7,1.2-5.6c0-1.2-0.5-4.3-0.6-4.8c0-1.9,1.6-3.4,3.4-3.4h6.7c1.9,0,3.4,1.5,3.4,3.4
	c-0.1,0.5-0.6,4.1-0.6,5.1c-0.1,1.8,0.3,3.6,1.1,5.3l0.2,0.4h0h13v13l0.4,0.2c0.4,0.2,0.9,0.5,1.4,0.6c0.3,0.1,0.5,0.2,0.8,0.3
	c0.2,0.1,0.4,0.1,0.6,0.2c0.4,0.1,0.8,0.2,1.2,0.2c0.1,0,0.2,0,0.2,0c0.5,0.1,0.9,0.1,1.4,0.1c0,0,0,0,0,0c0,0,0,0,0,0
	c0.1,0,0.1,0,0.2,0c1.6-0.2,3.1-0.4,4.7-0.8c0.1,0,0.1,0,0.2,0c0.1,0,0.3,0,0.4,0.1c0.1,0,0.2,0.1,0.3,0.1c0.1,0,0.2,0.1,0.3,0.1
	c0.1,0,0.2,0.1,0.3,0.2c0.1,0,0.2,0.1,0.2,0.1c0.1,0.1,0.2,0.2,0.3,0.2c0.1,0.1,0.1,0.1,0.2,0.2c0.1,0.1,0.2,0.2,0.2,0.3
	c0.1,0.1,0.1,0.2,0.2,0.2c0.1,0.1,0.1,0.2,0.2,0.3c0,0.1,0.1,0.2,0.1,0.3c0,0.1,0.1,0.2,0.1,0.4c0,0.1,0.1,0.2,0.1,0.3
	c0,0.1,0,0.3,0,0.4c0,0.1,0,0.2,0,0.4l0,6.8c0,0.2,0,0.3,0,0.5c0,0.1,0,0.2-0.1,0.3c0,0.1,0,0.1,0,0.2c-0.2,0.6-0.5,1.1-1,1.5
	c-0.4,0.4-0.9,0.6-1.5,0.7c-0.1,0-0.2,0-0.3,0c-0.1,0-0.2,0-0.3,0c-0.3,0-3.7-0.5-5-0.5c-0.1,0-0.3,0-0.4,0c0,0,0,0,0,0
	c-0.2,0-0.4,0-0.6,0c-0.2,0-0.4,0-0.7,0c-0.3,0-0.6,0.1-1,0.1c-0.1,0-0.2,0-0.4,0.1c-0.9,0.2-1.8,0.5-2.6,0.9l-0.4,0.2V99.5z
	 M113.9,82.6c0,1.9-1.5,3.4-3.4,3.4c-0.5-0.1-4-0.6-5.1-0.6c0,0,0,0,0,0c-1.9-0.1-3.8,0.3-5.4,1.2l-0.4,0.2v12.7H86.7l-0.2,0.4
	c-1,1.8-1.4,3.8-1.3,5.8c0,1.2,0.5,4.3,0.6,4.8c0,1.9-1.6,3.4-3.4,3.4h-6.7c-1.9,0-3.4-1.5-3.4-3.4c0.1-0.5,0.6-4.1,0.6-5.1
	c0.1-1.9-0.3-3.8-1.3-5.5l-0.2-0.4H58.4V87.4c0.7-0.3,1.4-0.5,2.1-0.6c0.1,0,0.2,0,0.3,0c0.3,0,0.5-0.1,0.8-0.1c0.2,0,0.4,0,0.5,0
	c0.2,0,0.4,0,0.7,0c0.1,0,0.2,0,0.2,0c1.2,0.1,3.6,0.4,4.6,0.5c0.1,0,0.1,0,0.2,0c0,0,0,0,0,0c0.2,0,0.3,0,0.5,0c0,0,0.1,0,0.1,0
	c0.1,0,0.2,0,0.3,0c0.2,0,0.5-0.1,0.7-0.1c0,0,0,0,0,0c0.8-0.2,1.5-0.7,2-1.3c0.5-0.5,0.8-1.1,1-1.7c0-0.1,0-0.1,0-0.2
	c0.1-0.2,0.1-0.4,0.1-0.6c0-0.1,0-0.1,0-0.2c0-0.3,0-0.5,0-0.7v-6.7c0-0.1,0-0.2,0-0.3c0-0.2,0-0.4-0.1-0.6c0-0.1-0.1-0.2-0.1-0.3
	c-0.1-0.2-0.1-0.4-0.2-0.6c0-0.1-0.1-0.2-0.2-0.3c-0.1-0.2-0.2-0.3-0.3-0.5c-0.1-0.1-0.2-0.2-0.3-0.3c-0.1-0.1-0.2-0.2-0.3-0.3
	c0,0,0,0-0.1-0.1c-0.1-0.1-0.2-0.2-0.3-0.3c-0.1-0.1-0.3-0.2-0.4-0.3c-0.1-0.1-0.3-0.1-0.4-0.2c-0.1-0.1-0.3-0.2-0.4-0.2
	c-0.2-0.1-0.3-0.1-0.5-0.2c-0.1,0-0.3-0.1-0.4-0.1c-0.2,0-0.4-0.1-0.6-0.1c-0.1,0-0.2,0-0.3,0l-0.1,0l0,0c0,0,0,0-0.1,0l-0.2,0
	c-1.5,0.3-3.1,0.6-4.6,0.8c-0.4,0-0.7,0-1.1,0c-0.3,0-0.6-0.1-1-0.1c-0.1,0-0.1,0-0.2,0c-0.3-0.1-0.7-0.2-1-0.3c0,0-0.1,0-0.1,0
	c-0.4-0.1-0.7-0.3-1.1-0.5V58.4h12.1c0.6,1.3,0.8,2.7,0.8,4.1c0,0.9-0.4,3.9-0.5,5l0,0.1c0,2.7,2.2,4.9,4.9,4.9h6.7
	c2.7,0,4.9-2.2,4.9-4.9l0-0.1c-0.2-1-0.5-3.7-0.5-4.7c0-0.4,0-0.8,0-1.1c0.1-1.1,0.4-2.3,0.8-3.3h12.1v13.2l0.4,0.2
	c1.8,0.9,3.8,1.4,5.8,1.3c1.2,0,4.3-0.5,4.8-0.6c1.9,0,3.4,1.6,3.4,3.4V82.6z"/>
</svg>
