<?xml version="1.0" encoding="utf-8"?>
<!-- Generator: Adobe Illustrator 23.0.1, SVG Export Plug-In . SVG Version: 6.00 Build 0)  -->
<svg version="1.1" id="Layer_1" xmlns="http://www.w3.org/2000/svg" xmlns:xlink="http://www.w3.org/1999/xlink" x="0px" y="0px"
	 viewBox="0 0 20.2 37" style="enable-background:new 0 0 20.2 37;" xml:space="preserve">
<style type="text/css">
	.st0{fill:#FFFFFF;}
</style>
<path class="st0" d="M10.1,0C3.4,0,0,4.5,0,13.5c0,5.1,3.1,12.1,4.4,14.9c2.2,4.7,4.8,8.6,5.6,8.6c0.8,0,3.4-4,5.6-8.6
	c1.3-2.8,4.4-9.8,4.4-14.9C20.2,4.6,16.8,0,10.1,0z M10.4,13.4c-2.1,0-3.8-1.7-3.8-3.8c0-2.1,1.7-3.8,3.8-3.8c2.1,0,3.8,1.7,3.8,3.8
	C14.2,11.7,12.5,13.4,10.4,13.4z"/>
</svg>
