<?xml version="1.0" encoding="utf-8"?>
<!-- Generator: Adobe Illustrator 23.0.1, SVG Export Plug-In . SVG Version: 6.00 Build 0)  -->
<svg version="1.1" id="pinterest" xmlns="http://www.w3.org/2000/svg" xmlns:xlink="http://www.w3.org/1999/xlink" x="0px" y="0px"
	 viewBox="0 0 25.7 25.7" style="enable-background:new 0 0 25.7 25.7;" xml:space="preserve">
<style type="text/css">
	.st0{fill:#FFFFFF;}
</style>
<path id="p" class="st0" d="M14,16.7c2.9,0,4.8-2.6,4.8-6.2c-0.1-2.9-2.5-5.2-5.4-5.1h-0.1C9.1,5.4,7,8.4,7,11
	c-0.2,1.4,0.6,2.8,1.8,3.4c0.1,0.1,0.3,0,0.4-0.1v-0.1c0-0.1,0.1-0.6,0.2-0.7c0.1-0.2,0-0.4-0.1-0.5c-0.4-0.5-0.6-1.1-0.6-1.8
	c0-2.3,1.8-4.3,4.1-4.3c0.1,0,0.1,0,0.2,0c1.8-0.2,3.4,1.1,3.6,3c0,0.2,0,0.3,0,0.5c0,2.6-1.1,4.8-2.8,4.8c-0.8,0-1.4-0.6-1.4-1.4
	c0-0.1,0-0.2,0-0.4c0.4-1,0.6-2.1,0.8-3.2c0-0.7-0.4-1.4-1.2-1.4c-0.9,0-1.7,1-1.7,2.3c0,0.5,0.1,1,0.3,1.4c0,0-1,4.2-1.1,4.9
	s-0.2,1.3-0.1,2c0,0.6,0.6,1,1.1,0.4c0.4-0.6,0.7-1.2,0.8-1.9c0.1-0.4,0.6-2.5,0.6-2.5C12.4,16.3,13.2,16.8,14,16.7z"/>
</svg>
